<?xml version="1.0" standalone="no"?>
<!DOCTYPE svg PUBLIC "-//W3C//DTD SVG 20010904//EN"
 "http://www.w3.org/TR/2001/REC-SVG-20010904/DTD/svg10.dtd">
<svg version="1.0" xmlns="http://www.w3.org/2000/svg"
 width="512.000000pt" height="512.000000pt" viewBox="0 0 512.000000 512.000000"
 preserveAspectRatio="xMidYMid meet">

<g transform="translate(0.000000,512.000000) scale(0.100000,-0.100000)"
fill="#000000" stroke="none">
<path d="M1820 4933 c-114 -9 -307 -49 -425 -88 -279 -91 -493 -229 -710 -457
-375 -394 -587 -943 -666 -1728 -17 -163 -25 -2272 -9 -2330 14 -54 81 -121
136 -138 31 -9 263 -12 965 -12 875 0 926 1 964 19 49 22 93 65 111 108 12 27
14 204 14 983 0 835 -2 955 -15 988 -21 49 -52 81 -100 103 -37 17 -71 19
-399 19 l-359 0 7 133 c23 462 139 824 318 993 95 90 180 126 327 139 111 10
172 48 206 127 13 32 15 106 15 513 0 516 0 512 -56 569 -62 62 -131 74 -324
59z"/>
<path d="M4698 4929 c-504 -49 -945 -303 -1252 -723 -287 -392 -455 -907 -511
-1571 -21 -243 -22 -2279 -1 -2328 18 -43 62 -86 111 -108 38 -18 89 -19 964
-19 702 0 934 3 965 12 53 16 121 84 135 134 7 27 11 340 11 974 0 886 -1 937
-19 975 -22 49 -65 93 -108 111 -25 11 -111 14 -389 14 l-356 0 6 98 c35 498
127 819 286 995 101 111 188 152 373 175 97 12 146 43 182 115 l25 51 0 460
c0 297 -4 475 -11 500 -14 50 -82 118 -135 134 -46 13 -143 14 -276 1z"/>
</g>
</svg>
